<svg width="17" height="16" viewBox="0 0 17 16" fill="none" xmlns="http://www.w3.org/2000/svg">
<path fill-rule="evenodd" clip-rule="evenodd" d="M15.2222 16H12.5556C12.0578 16 11.6667 15.6089 11.6667 15.1111C11.6667 14.6133 12.0578 14.2222 12.5556 14.2222H14.1556C14.7422 14.2222 15.2222 13.7422 15.2222 13.1556V11.5556C15.2222 11.0578 15.6133 10.6667 16.1111 10.6667C16.6089 10.6667 17 11.0578 17 11.5556V14.2222C17 15.2178 16.2178 16 15.2222 16ZM16.1111 5.33333C15.6133 5.33333 15.2222 4.94222 15.2222 4.44444V2.84444C15.2222 2.25778 14.7422 1.77778 14.1556 1.77778H12.5556C12.0578 1.77778 11.6667 1.38667 11.6667 0.888889C11.6667 0.391111 12.0578 0 12.5556 0H15.2222C16.2 0 17 0.8 17 1.77778V4.44444C17 4.92444 16.6089 5.33333 16.1111 5.33333ZM4.44444 1.77778H2.84444C2.25778 1.77778 1.77778 2.25778 1.77778 2.84444V4.44444C1.77778 4.94222 1.38667 5.33333 0.888889 5.33333C0.391111 5.33333 0 4.94222 0 4.44444V1.77778C0 0.8 0.8 0 1.77778 0H4.44444C4.94222 0 5.33333 0.391111 5.33333 0.888889C5.33333 1.38667 4.92444 1.77778 4.44444 1.77778ZM0.888889 10.6667C1.38667 10.6667 1.77778 11.0578 1.77778 11.5556V13.1556C1.77778 13.7422 2.25778 14.2222 2.84444 14.2222H4.44444C4.94222 14.2222 5.33333 14.6133 5.33333 15.1111C5.33333 15.6089 4.94222 16 4.44444 16H1.77778C0.8 16 0 15.2 0 14.2222V11.5556C0 11.0756 0.391111 10.6667 0.888889 10.6667Z" fill="#28313B"/>
<path d="M12.5 3H11.5C11.2239 3 11 3.22386 11 3.5V12.5C11 12.7761 11.2239 13 11.5 13H12.5C12.7761 13 13 12.7761 13 12.5V3.5C13 3.22386 12.7761 3 12.5 3Z" fill="#28313B"/>
<path d="M5 12.5V3.5C5 3.22386 4.77614 3 4.5 3C4.22386 3 4 3.22386 4 3.5V12.5C4 12.7761 4.22386 13 4.5 13C4.77614 13 5 12.7761 5 12.5Z" fill="#28313B"/>
<path d="M7.5 3H6.5C6.22386 3 6 3.22386 6 3.5V12.5C6 12.7761 6.22386 13 6.5 13H7.5C7.77614 13 8 12.7761 8 12.5V3.5C8 3.22386 7.77614 3 7.5 3Z" fill="#28313B"/>
<path d="M10 12.5V3.5C10 3.22386 9.77614 3 9.5 3C9.22386 3 9 3.22386 9 3.5V12.5C9 12.7761 9.22386 13 9.5 13C9.77614 13 10 12.7761 10 12.5Z" fill="#28313B"/>
</svg>
